<svg version="1.0" xmlns="http://www.w3.org/2000/svg" viewBox="0 0 260 545" preserveAspectRatio="xMidYMid meet">
<g transform="translate(0.000000,545.000000) scale(0.100000,-0.100000)" fill="#c8866a" stroke="none">
<path d="M1140 5230 c-61 -12 -117 -43 -146 -81 -27 -37 -48 -128 -41 -175 4 -26 2 -33 -14 -37 -25 -7 -26 -66 0 -116 61 -120 68 -139 70 -191 1 -30 4 -63 7 -72 14 -48 -148 -140 -303 -173 -18 -3 -35 -11 -39 -16 -3 -5 -22 -18 -43 -28 -80 -41 -127 -167 -117 -308 8 -106 8 -127 6 -286 -1 -83 3 -143 9 -151 13 -15 35 -152 27 -165 -4 -5 -2 -12 4 -16 16 -10 12 -25 -5 -19 -10 4 -15 19 -15 43 0 20 -3 60 -6 89 -6 42 -9 50 -20 41 -8 -6 -14 -16 -14 -21 0 -14 -59 -130 -75 -148 -8 -9 -19 -46 -25 -84 -6 -38 -13 -72 -15 -75 -2 -4 -9 -45 -15 -91 -6 -47 -16 -90 -21 -96 -5 -6 -6 -14 -2 -17 3 -4 1 -7 -5 -7 -6 0 -13 -15 -17 -32 -3 -18 -18 -67 -33 -108 -27 -76 -53 -109 -125 -160 -33 -22 -107 -116 -107 -133 0 -4 -12 -25 -26 -47 -26 -39 -25 -60 1 -60 26 0 63 22 76 46 7 13 15 24 18 24 3 0 6 -62 6 -138 0 -139 9 -182 39 -182 8 0 16 -7 20 -15 7 -20 30 -19 78 2 29 13 41 25 45 46 4 18 15 32 30 38 42 16 63 114 64 305 1 123 2 131 30 179 16 28 39 69 51 93 12 23 26 42 30 42 4 0 8 4 8 9 0 11 63 105 84 127 54 53 105 240 106 382 0 29 5 63 11 74 6 11 13 56 16 99 6 85 17 102 26 42 4 -21 16 -76 28 -123 32 -126 35 -194 10 -268 -16 -46 -21 -87 -21 -164 0 -68 -6 -118 -16 -148 -27 -77 -35 -228 -24 -465 6 -121 15 -245 20 -275 5 -30 14 -122 20 -204 5 -81 13 -153 17 -159 10 -16 13 -40 19 -147 5 -88 3 -105 -32 -235 -32 -121 -38 -155 -38 -250 0 -66 5 -119 12 -132 6 -11 16 -65 22 -120 5 -54 16 -123 24 -153 8 -30 19 -75 26 -100 6 -25 13 -52 14 -60 2 -8 7 -23 11 -33 4 -9 8 -48 9 -85 1 -51 -4 -78 -22 -114 -12 -26 -22 -51 -22 -55 0 -5 -27 -33 -60 -62 -33 -30 -60 -60 -60 -67 0 -24 64 -39 170 -39 154 1 176 11 164 75 -11 62 -13 132 -3 159 7 17 5 49 -6 104 -17 83 -13 179 8 205 6 8 12 64 12 128 2 77 6 118 15 129 22 26 19 217 -4 288 -21 65 -20 72 23 182 47 120 53 158 62 430 4 138 15 336 23 440 8 105 16 220 17 256 2 45 7 65 15 62 7 -3 13 -63 18 -176 4 -95 12 -190 17 -212 6 -22 14 -175 19 -340 8 -285 11 -322 29 -370 75 -191 74 -182 51 -306 -18 -100 -18 -114 -5 -191 9 -46 16 -132 18 -193 2 -84 7 -116 20 -136 13 -20 16 -43 13 -115 -2 -49 -9 -101 -16 -116 -10 -20 -10 -34 -1 -59 13 -37 15 -125 3 -133 -4 -2 -9 -22 -10 -43 -2 -29 2 -41 19 -51 11 -7 23 -11 26 -8 3 3 15 0 26 -6 17 -9 75 -10 195 -4 12 0 22 4 22 8 0 4 10 8 22 10 39 6 31 27 -34 90 -53 53 -67 74 -87 132 -18 53 -22 80 -16 115 4 25 8 57 10 71 1 14 5 32 9 40 15 36 38 132 52 215 8 50 21 122 29 160 8 39 17 95 21 125 7 69 -11 237 -30 276 -18 35 -46 189 -46 253 0 25 6 78 15 116 25 122 46 323 56 545 5 118 13 230 17 249 14 66 -15 350 -41 395 -6 12 -13 37 -14 56 -7 140 -12 179 -25 205 -34 67 -31 130 12 288 14 53 20 100 18 145 l-3 67 -10 -44 c-6 -25 -16 -46 -23 -49 -19 -6 -14 18 13 72 19 38 25 65 25 117 0 37 5 71 10 74 6 4 10 -33 11 -102 1 -59 5 -155 10 -213 5 -58 11 -130 13 -160 3 -30 9 -71 14 -90 6 -19 15 -67 21 -105 11 -74 27 -115 73 -180 16 -22 45 -65 65 -95 21 -30 40 -57 44 -60 3 -3 16 -23 28 -45 12 -22 26 -47 31 -55 5 -8 19 -36 30 -62 17 -39 19 -55 11 -90 -5 -23 -8 -45 -6 -49 3 -4 9 -56 14 -115 12 -137 27 -185 64 -202 18 -9 27 -21 27 -37 0 -42 112 -87 126 -51 3 8 13 16 23 19 25 6 31 47 31 196 l1 126 27 -32 c26 -31 71 -51 90 -39 13 8 5 39 -16 63 -10 10 -28 40 -41 66 -22 43 -56 78 -158 164 -23 19 -43 46 -50 70 -6 21 -21 72 -33 113 -12 41 -25 77 -29 80 -9 6 -38 148 -52 254 -7 48 -20 86 -43 126 -19 32 -44 80 -56 106 -19 43 -23 46 -30 29 -5 -11 -9 -47 -9 -81 -1 -36 -7 -68 -16 -80 -13 -18 -14 -16 -15 23 0 59 20 147 36 156 11 6 14 37 14 135 -1 70 -5 147 -9 172 -7 33 -5 54 6 82 16 40 14 102 -7 197 -18 85 -52 144 -97 166 -21 11 -41 24 -44 29 -6 7 -129 45 -206 63 -13 3 -23 9 -23 13 0 4 -10 10 -23 14 -13 3 -33 13 -44 23 -12 10 -31 26 -43 36 -13 11 -19 25 -16 33 3 9 9 55 12 102 4 48 12 94 19 102 6 8 18 31 25 50 7 19 17 39 22 45 13 15 9 83 -6 92 -8 5 -15 34 -18 80 -4 48 -11 77 -22 88 -9 9 -16 22 -16 29 0 7 -12 24 -27 38 -56 51 -141 73 -223 58z m170 -43 c64 -31 110 -141 96 -228 -6 -35 -4 -38 15 -34 20 4 21 1 16 -41 -2 -25 -12 -53 -21 -62 -15 -15 -16 -14 -17 8 l-1 25 -8 -25 c-4 -14 -8 -39 -9 -56 -2 -47 -27 -88 -80 -133 -90 -75 -129 -76 -216 -5 -67 55 -77 72 -84 148 -4 38 -11 61 -20 64 -10 3 -13 -2 -9 -22 3 -16 2 -24 -3 -19 -11 11 -29 106 -22 113 2 3 10 5 16 5 7 0 10 22 8 61 -4 102 45 183 128 211 48 17 167 11 211 -10z"/>
</g>
</svg>
